<svg xmlns="http://www.w3.org/2000/svg" viewBox="0 0 512 512" role="img" aria-label="Add-on crate">
  <rect width="512" height="512" rx="70" fill="#16130f"/>
  <path d="M256 28 462 138v236L256 484 50 374V138Z" fill="#b7652e"/>
  <path d="M256 28 462 138 256 248 50 138Z" fill="#d1813c"/>
  <path d="M50 138 256 248v236L50 374Z" fill="#9d4e27"/>
  <path d="M462 138 256 248v236l206-110Z" fill="#6b2e2b"/>
  <path d="M256 250 50 139l206-111 206 111Z" fill="none" stroke="#ffb15a" stroke-width="20" opacity=".55"/>
  <path d="M168 212h72v-26c0-18 15-33 33-33s33 15 33 33v26h38c18 0 33 15 33 33s-15 33-33 33h-38v72h-72v-24c0-18-15-33-33-33s-33 15-33 33v24h-72v-72h23c18 0 33-15 33-33s-15-33-33-33h-23v-72h72Z" fill="#101615" stroke="#73d6d2" stroke-width="16" stroke-linejoin="round"/>
  <path d="M214 250h84M256 208v84" stroke="#c8f36c" stroke-width="22" stroke-linecap="round"/>
</svg>
